<svg id="rename" enable-background="new 0 0 512.602 512.602" height="512" viewBox="0 0 512.602 512.602" width="512"
  xmlns="http://www.w3.org/2000/svg">
  <path
    d="m502.367 66.042-55.187-55.186c-13.646-13.646-35.85-13.647-49.497 0l-348.202 348.203c-.002.002-.003.004-.005.006-1.554 1.555-2.771 3.455-3.528 5.593l-45.087 127.315c-1.919 5.421-.571 11.462 3.471 15.552 2.865 2.899 6.727 4.456 10.67 4.456 1.621 0 3.255-.263 4.84-.803l128.558-43.844c2.197-.749 4.148-1.986 5.741-3.573.007-.007.016-.01.023-.017l348.203-348.204c13.647-13.647 13.647-35.851 0-49.498zm-439.095 398.627-15.446-15.446 18.465-52.14 49.631 49.631zm80.286-32.746-62.257-62.257 229.411-229.411 62.258 62.257zm250.625-250.624-62.258-62.257 21.027-21.027 62.258 62.258zm86.971-86.972-44.731 44.731-62.258-62.258 44.731-44.731c1.948-1.948 5.121-1.95 7.071 0l55.187 55.186c1.949 1.95 1.949 5.122 0 7.072z" />
  </svg>